<svg xmlns="http://www.w3.org/2000/svg" viewBox="0 0 196 196"><g transform="translate(-862.38 -441.80)"><path fill-rule="nonzero" fill="currentColor" fill-opacity="1" d="M 972.320312 480.503906 L 960.582031 492.242188 L 948.84375 480.503906 L 960.582031 468.765625 Z M 972.320312 480.503906 "/>
<path fill-rule="nonzero" fill="currentColor" fill-opacity="1" d="M 1006.246094 515.570312 L 1006.246094 540.101562 L 986.671875 559.664062 L 986.671875 579.710938 C 985.71875 580.664062 984.765625 581.613281 983.8125 582.566406 L 937.359375 582.566406 L 933.835938 579.046875 L 933.835938 559.078125 L 914.910156 540.152344 L 914.910156 514.109375 L 935.46875 493.554688 C 938.519531 490.503906 943.472656 490.503906 946.539062 493.554688 C 949.589844 496.605469 949.589844 501.5625 946.539062 504.628906 L 930.5625 520.589844 L 930.5625 533.671875 L 949.488281 552.597656 L 949.488281 566.917969 L 971.019531 566.917969 L 971.019531 553.183594 L 990.597656 533.621094 L 990.597656 521.738281 L 974.410156 504.429688 C 971.464844 501.273438 971.632812 496.320312 974.789062 493.371094 C 977.945312 490.425781 982.886719 490.59375 985.847656 493.75 Z M 1006.246094 515.570312 "/>
<path fill-rule="nonzero" fill="currentColor" fill-opacity="1" d="M 982.648438 594.683594 C 982.648438 597.050781 980.734375 598.976562 978.359375 598.976562 L 942.804688 598.976562 C 940.4375 598.976562 938.511719 597.050781 938.511719 594.683594 C 938.511719 592.316406 940.4375 590.394531 942.804688 590.394531 L 978.359375 590.394531 C 980.734375 590.394531 982.648438 592.316406 982.648438 594.683594 "/>
<path fill-rule="nonzero" fill="currentColor" fill-opacity="1" d="M 977.148438 606.945312 C 977.148438 609.308594 975.226562 611.234375 972.859375 611.234375 L 948.304688 611.234375 C 945.9375 611.234375 944.011719 609.308594 944.011719 606.945312 C 944.011719 604.578125 945.9375 602.652344 948.304688 602.652344 L 972.859375 602.652344 C 975.226562 602.652344 977.148438 604.578125 977.148438 606.945312 "/></g></svg>
